<svg width="150" height="142" viewBox="0 0 150 142" fill="none" xmlns="http://www.w3.org/2000/svg" xmlns:xlink="http://www.w3.org/1999/xlink">
<path d="M75,25.763L68.278,18.854C52.5,2.635 23.569,8.232 13.126,28.622C8.607,37.453 7.314,49.903 14.138,65.625L4.032,65.625C-15.917,12.216 43.078,-17.155 73.35,10.716C73.912,11.232 74.465,11.766 75,12.319C75.529,11.767 76.079,11.235 76.65,10.726C106.93,-17.155 165.917,12.216 145.967,65.625L135.861,65.625C142.686,49.903 141.392,37.453 136.874,28.622C126.43,8.232 97.499,2.626 81.722,18.844L75,25.763ZM20.738,93.749L33.066,93.749C43.06,104.84 56.719,116.793 75,129.327C93.271,116.793 106.94,104.84 116.933,93.749L129.261,93.749C117.402,108.43 99.824,124.217 75,140.623C50.175,124.217 32.597,108.43 20.738,93.749ZM98.099,31.069C97.736,30.161 97.097,29.39 96.274,28.864C95.45,28.337 94.482,28.081 93.506,28.131C92.529,28.182 91.593,28.537 90.828,29.146C90.063,29.755 89.508,30.588 89.24,31.528L74.259,83.962L60.6,49.819C60.282,49.027 59.754,48.337 59.072,47.823C58.39,47.309 57.582,46.991 56.732,46.903C55.883,46.815 55.027,46.961 54.254,47.325C53.482,47.688 52.824,48.255 52.35,48.966L34.988,75L4.689,75C3.445,75 2.253,75.493 1.374,76.372C0.495,77.252 0.001,78.444 0.001,79.687C0.001,80.93 0.495,82.122 1.374,83.001C2.253,83.881 3.445,84.374 4.689,84.374L37.5,84.374C38.272,84.374 39.032,84.183 39.713,83.818C40.393,83.454 40.973,82.926 41.4,82.284L55.209,61.575L70.65,100.18C71.014,101.088 71.652,101.859 72.476,102.386C73.299,102.913 74.267,103.169 75.244,103.118C76.22,103.067 77.156,102.713 77.921,102.104C78.686,101.494 79.241,100.661 79.509,99.721L94.49,47.288L108.149,81.431C108.497,82.3 109.098,83.044 109.873,83.569C110.648,84.094 111.563,84.374 112.499,84.374L145.311,84.374C146.554,84.374 147.746,83.881 148.625,83.001C149.505,82.122 149.998,80.93 149.998,79.687C149.998,78.444 149.505,77.252 148.625,76.372C147.746,75.493 146.554,75 145.311,75L115.668,75L98.099,31.069Z" clip-rule="evenodd" fill-rule="evenodd" fill="#6A8F2E"/>
</svg>
