<svg width="180" height="148" viewBox="0 0 180 148" fill="none" xmlns="http://www.w3.org/2000/svg" xmlns:xlink="http://www.w3.org/1999/xlink">
<path d="M163.5,0.5L16.5,0.5C8.333,0.5 0.167,8.667 0.167,16.833L0.167,131.167C0.167,140.15 7.517,147.5 16.5,147.5L163.5,147.5C171.667,147.5 179.833,139.333 179.833,131.167L179.833,16.833C179.833,8.667 171.667,0.5 163.5,0.5ZM163.5,130.513C163.337,130.758 163.01,131.003 162.847,131.167L16.5,131.167L16.5,17.487L17.153,16.833L162.765,16.833C163.01,16.997 163.255,17.323 163.418,17.487L163.418,130.513L163.5,130.513ZM81.833,102.665L61.417,78.083L32.833,114.833L147.167,114.833L110.417,65.833L81.833,102.665Z" fill="#000000"/>
</svg>
